HIERARCHY
ROOT RootJoint
{
    OFFSET   0.000000   0.000000   0.000000
    CHANNELS 6 Xposition Yposition Zposition Xrotation Yrotation Zrotation
    JOINT pelvis_lowerback
    {
        OFFSET   0.000000   0.093605   0.000000
        CHANNELS 3 Xrotation Yrotation Zrotation
        JOINT lowerback_torso
        {
            OFFSET   0.000000   0.100000   0.000000
            CHANNELS 3 Xrotation Yrotation Zrotation
            JOINT torso_head
            {
                OFFSET   0.000000   0.282350   0.000000
                CHANNELS 3 Xrotation Yrotation Zrotation
                End Site
                {
                    OFFSET   0.000000   0.192650   0.000000
                }
            }
            JOINT rTorso_Clavicle
            {
                OFFSET  -0.001000   0.157500   0.000000
                CHANNELS 3 Xrotation Yrotation Zrotation
                JOINT rShoulder
                {
                    OFFSET  -0.117647   0.000000   0.000000
                    CHANNELS 3 Xrotation Yrotation Zrotation
                    JOINT rElbow
                    {
                        OFFSET  -0.245000   0.000000   0.000000
                        CHANNELS 3 Xrotation Yrotation Zrotation
                        JOINT rWrist
                        {
                            OFFSET  -0.240000   0.000000   0.000000
                            CHANNELS 3 Xrotation Yrotation Zrotation
                            End Site
                            {
                                OFFSET  -0.116353  -0.002500   0.000000
                            }
                        }
                    }
                }
            }
            JOINT lTorso_Clavicle
            {
                OFFSET   0.001000   0.157500   0.000000
                CHANNELS 3 Xrotation Yrotation Zrotation
                JOINT lShoulder
                {
                    OFFSET   0.117647   0.000000   0.000000
                    CHANNELS 3 Xrotation Yrotation Zrotation
                    JOINT lElbow
                    {
                        OFFSET   0.245000   0.000000   0.000000
                        CHANNELS 3 Xrotation Yrotation Zrotation
                        JOINT lWrist
                        {
                            OFFSET   0.240000   0.000000   0.000000
                            CHANNELS 3 Xrotation Yrotation Zrotation
                            End Site
                            {
                                OFFSET   0.116353  -0.002500   0.000000
                            }
                        }
                    }
                }
            }
        }
    }
    JOINT rHip
    {
        OFFSET  -0.100000  -0.051395   0.000000
        CHANNELS 3 Xrotation Yrotation Zrotation
        JOINT rKnee
        {
            OFFSET   0.000000  -0.410000   0.000000
            CHANNELS 3 Xrotation Yrotation Zrotation
            JOINT rAnkle
            {
                OFFSET   0.000000  -0.390000   0.000000
                CHANNELS 3 Xrotation Yrotation Zrotation
                JOINT rToeJoint
                {
                    OFFSET   0.000000  -0.050000   0.130000
                    CHANNELS 3 Xrotation Yrotation Zrotation
                    End Site
                    {
                        OFFSET  -0.010000   0.002000   0.060000
                    }
                }
            }
        }
    }
    JOINT lHip
    {
        OFFSET   0.100000  -0.051395   0.000000
        CHANNELS 3 Xrotation Yrotation Zrotation
        JOINT lKnee
        {
            OFFSET   0.000000  -0.410000   0.000000
            CHANNELS 3 Xrotation Yrotation Zrotation
            JOINT lAnkle
            {
                OFFSET   0.000000  -0.390000   0.000000
                CHANNELS 3 Xrotation Yrotation Zrotation
                JOINT lToeJoint
                {
                    OFFSET   0.000000  -0.050000   0.130000
                    CHANNELS 3 Xrotation Yrotation Zrotation
                    End Site
                    {
                        OFFSET   0.010000   0.002000   0.060000
                    }
                }
            }
        }
    }
}
MOTION
Frames: 14
Frame Time:   0.008333
 -2.376719   0.925631   3.975860   0.000000   0.000000   0.000000   0.000000   0.000000   0.000000   0.000000   0.000000   0.000000   0.000000   0.000000   0.000000   0.000000   0.000000   0.000000   0.000000   0.000000   0.000000   0.000000   0.000000   0.000000   0.000000   0.000000   0.000000   0.000000   0.000000   0.000000   0.000000   0.000000   0.000000   0.000000   0.000000   0.000000   0.000000   0.000000   0.000000   0.000000   0.000000   0.000000   0.000000   0.000000   0.000000   0.000000   0.000000   0.000000   0.000000   0.000000   0.000000   0.000000   0.000000   0.000000   0.000000   0.000000   0.000000   0.000000   0.000000   0.000000   0.000000   0.000000   0.000000
 -2.376538   0.926189   3.975910  -0.106926   0.133763   0.016655   0.050245  -0.036301  -0.000385   0.165947  -0.144916   0.006731  -0.094578   0.089954   0.038997   0.179694  -0.355992   0.299190   0.516274   0.192160   2.123977   0.021019   0.980898  -0.007027   0.208335  -0.306981  -2.805529   0.227350   0.340378  -0.334485   0.836634  -0.015481  -2.101394   0.028089  -1.325238   0.013826   0.288298   0.349578   2.742279  -0.118695  -0.100248  -0.198892   0.731639   0.001164   0.000204  -0.752514  -0.381505  -0.012619  -0.115383  -0.000195   0.000349  -0.167030  -0.168937   0.112265   1.011781  -0.001145  -0.000298  -1.045872   0.286210   0.225914   0.294989  -0.000910   0.000648
 -2.376287   0.927146   3.976109  -0.258990   0.277422   0.029563   0.093089  -0.084088   0.014046   0.360165  -0.304727   0.025247  -0.164570   0.176106   0.080622   0.356717  -0.683797   1.316361   1.013533   0.424571   4.822108   0.048312   1.930500  -0.011966   0.447864  -0.325735  -4.887613   0.454120   0.633168  -1.388826   1.654843  -0.103878  -4.782753   0.064539  -2.607086   0.023962   0.620108   0.330764   4.755430  -0.215121  -0.199810  -0.540178   1.508378   0.003161   0.000393  -1.455596  -0.743841  -0.031387  -0.258855  -0.000590   0.000676  -0.245708  -0.324092   0.347390   2.088720  -0.003263  -0.000255  -2.023770   0.554931   0.443292   0.522280  -0.001645   0.001038
 -2.375994   0.928089   3.976424  -0.406605   0.417879   0.037435   0.114767  -0.142527   0.040243   0.534800  -0.469350   0.053675  -0.228641   0.256618   0.121228   0.528206  -0.972424   2.773551   1.488484   0.688931   7.895536   0.074868   2.821886  -0.014878   0.684251  -0.263592  -6.137192   0.671967   0.871579  -2.878764   2.451058  -0.257223  -7.840292   0.100011  -3.812841   0.030628   0.946542   0.197996   5.940524  -0.319123  -0.294446  -0.992678   2.244922   0.005393   0.000456  -2.111556  -1.083626  -0.054311  -0.395659  -0.001029   0.000890  -0.267789  -0.465654   0.686590   3.126791  -0.005763  -0.000002  -2.936343   0.804212   0.651310   0.726738  -0.002299   0.001290
 -2.375676   0.928721   3.976831  -0.540174   0.549013   0.041111   0.118612  -0.209283   0.075117   0.683872  -0.635641   0.089951  -0.290958   0.331724   0.159966   0.696241  -1.230077   4.480012   1.942208   0.982342  11.221155   0.097598   3.654898  -0.016305   0.911152  -0.179336  -6.766193   0.881357   1.067752  -4.611581   3.226891  -0.472642 -11.147933   0.130396  -4.942826   0.034783   1.260561   0.022697   6.513156  -0.437224  -0.383208  -1.532272   2.929188   0.007519   0.000381  -2.724589  -1.401931  -0.080426  -0.527215  -0.001466   0.001028  -0.248311  -0.595451   1.110106   4.111165  -0.008275   0.000348  -3.789015   1.035246   0.850031   0.908973  -0.002827   0.001424
 -2.375347   0.928823   3.977310  -0.659410   0.666787   0.041597   0.108899  -0.282366   0.116444   0.810437  -0.801756   0.132344  -0.351310   0.401768   0.196571   0.861924  -1.464685   6.308671   2.374856   1.301320  14.714827   0.115335   4.431408  -0.016686   1.126092  -0.095034  -6.974225   1.082166   1.232271  -6.459901   3.981706  -0.746389 -14.619979   0.154164  -5.999821   0.037179   1.559809  -0.168265   6.674184  -0.569039  -0.465270  -2.138710   3.562229   0.009361   0.000190  -3.297683  -1.699886  -0.108909  -0.652935  -0.001866   0.001110  -0.195331  -0.714818   1.599898   5.041613  -0.010582   0.000719  -4.585816   1.249245   1.039534   1.071745  -0.003220   0.001467
 -2.375043   0.928224   3.977844  -0.766171   0.769087   0.041766   0.089407  -0.359944   0.157812   0.918972  -0.966165   0.169590  -0.409135   0.467030   0.233818   1.026279  -1.682528   8.180608   2.786230   1.642596  18.323194   0.127944   5.153905  -0.016356   1.328015  -0.021605  -6.903939   1.275586   1.373460  -8.373570   4.689849  -1.064347 -18.099642   0.170741  -6.987936   0.038149   1.843840  -0.366022   6.518352  -0.712568  -0.540071  -2.794034   4.147505   0.010824  -0.000077  -3.833488  -1.978638  -0.139110  -0.772392  -0.002203   0.001152  -0.114785  -0.824756   2.140711   5.920488  -0.012584   0.001066  -5.330339   1.447341   1.219897   1.217755  -0.003489   0.001444
 -2.374847   0.926243   3.977874  -0.691546   0.783595  -0.017873   0.042736  -0.425029   0.279071   0.925414  -1.092248   0.171914  -0.583814   0.412678   0.227374   1.187736  -1.766064   9.405424   3.216081   1.927772  21.976022   0.139382   5.992871  -0.017104   1.446672   0.003631  -5.851442   1.527747   1.545304  -9.555787   5.234991  -1.404675 -21.606999   0.182233  -8.072848   0.039239   2.072415  -0.615989   5.376799  -1.262246  -0.846515  -3.311716   5.162079   0.013463  -0.003440  -4.215240  -2.333037   0.066153  -0.762428  -0.001730   0.000863  -0.161938  -0.804863   2.690103   6.274910  -0.011558   0.001186  -5.844763   1.737792   1.379448   1.327841  -0.003402   0.001495
 -2.374697   0.923083   3.977709  -0.607010   0.818680  -0.086469   0.038784  -0.501259   0.400477   0.936051  -1.214123   0.184213  -0.756004   0.355425   0.213929   1.329562  -1.815203  10.408537   3.593853   2.234614  25.300049   0.142742   6.785664  -0.017454   1.566902   0.079561  -4.804803   1.754611   1.686230 -10.482324   5.719192  -1.759806 -24.767543   0.183573  -9.095345   0.039374   2.293933  -0.929796   4.287875  -1.809008  -1.146914  -3.755923   6.145923   0.014761  -0.005886  -4.564183  -2.668294   0.255537  -0.723410  -0.001273   0.000476  -0.258251  -0.786194   3.189165   6.515997  -0.010132   0.001208  -6.329662   2.008327   1.531481   1.429018  -0.003219   0.001511
 -2.374560   0.918852   3.977445  -0.525654   0.863967  -0.155935   0.062477  -0.573129   0.519443   0.961007  -1.327863   0.205895  -0.913276   0.301435   0.199148   1.453876  -1.845900  11.249204   3.924249   2.548635  28.334431   0.140670   7.530553  -0.017416   1.685583   0.180036  -3.925962   1.956872   1.804208 -11.229084   6.148024  -2.118343 -27.631182   0.178349 -10.053876   0.038588   2.506144  -1.257724   3.401733  -2.318170  -1.424263  -4.143242   7.066568   0.015025  -0.007406  -4.888703  -2.981819   0.430488  -0.684219  -0.000923   0.000181  -0.390575  -0.770030   3.630068   6.711219  -0.008721   0.001182  -6.784524   2.259101   1.675560   1.519856  -0.002967   0.001484
 -2.374418   0.918441   3.977601  -0.613648   0.823590  -0.011483   0.167348  -0.603519   0.467344   1.051579  -1.406523   0.163380  -1.045770   0.252175   0.178977   1.562692  -1.850015  12.268209   4.209669   2.869963  31.223613   0.137138   8.221289  -0.016765   1.799673   0.250662  -3.236710   2.143395   1.909884 -12.107726   6.529103  -2.468458 -30.318714   0.171395 -10.933570   0.036929   2.703613  -1.494263   2.749282  -2.793205  -1.772692  -4.403242   8.099474   0.012295  -0.010198  -4.924589  -3.344895   0.748777  -0.555670  -0.000961  -0.000765  -0.598296  -0.632601   3.492793   7.288964  -0.006941   0.001604  -6.741264   2.575213   1.633160   1.690157  -0.002324   0.001820
 -2.374404   0.918163   3.978057  -0.670081   0.765493   0.116962   0.204619  -0.628574   0.454573   1.118908  -1.472299   0.122201  -1.166369   0.206000   0.153564   1.675442  -1.869669  13.096016   4.468298   3.176644  33.915575   0.130765   8.871215  -0.015576   1.909178   0.348234  -2.457484   2.334639   2.033118 -12.812782   6.881205  -2.799264 -32.827549   0.161296 -11.759915   0.034520   2.889762  -1.749141   2.014492  -3.169419  -2.006997  -4.610252   8.960367   0.009829  -0.010873  -5.189459  -3.608580   0.884284  -0.480089  -0.000815  -0.001010  -0.726155  -0.594074   3.356258   7.749324  -0.005516   0.001292  -6.975289   2.786521   1.722868   1.644310  -0.001830   0.001372
 -2.374526   0.917891   3.978621  -0.695206   0.706879   0.231400   0.217475  -0.651532   0.463002   1.160279  -1.531261   0.095229  -1.285900   0.162692   0.131139   1.783607  -1.894136  13.796513   4.699640   3.466079  36.383683   0.122451   9.476630  -0.014201   2.012417   0.441946  -1.757372   2.518228   2.157465 -13.401314   7.201490  -3.110315 -35.126559   0.149149 -12.529082   0.031757   3.064713  -1.990367   1.354852  -3.517017  -2.214649  -4.790051   9.721196   0.007765  -0.010860  -5.458023  -3.850815   1.001724  -0.432341  -0.000681  -0.001038  -0.842785  -0.564670   3.241323   8.141186  -0.004414   0.000992  -7.212024   2.983228   1.819476   1.708222  -0.001514   0.001199
 -2.374734   0.917774   3.979222  -0.657799   0.647877   0.302736   0.234340  -0.661067   0.466506   1.127714  -1.540687   0.161962  -1.392274   0.079243   0.080479   1.877627  -1.983312  14.058371   4.944396   3.738850  38.298456   0.110001  10.044720  -0.012864   2.068813   0.658209  -0.321206   2.725102   2.274477 -13.559632   7.399621  -3.461515 -37.146120   0.135260 -13.350370   0.028892   3.192837  -2.212929   0.145932  -3.734687  -2.353319  -4.894947  10.111478   0.006116  -0.009482  -5.620603  -3.981508   1.065948  -0.211814  -0.000636  -0.001505  -0.907559  -0.493287   3.176459   8.294620  -0.003535   0.000822  -7.342686   3.170053   1.970024   1.795308  -0.001323   0.001117
